<?xml version="1.0" encoding="UTF-8" standalone="no"?>
<svg
   xmlns:dc="http://purl.org/dc/elements/1.1/"
   xmlns:cc="http://creativecommons.org/ns#"
   xmlns:rdf="http://www.w3.org/1999/02/22-rdf-syntax-ns#"
   xmlns:svg="http://www.w3.org/2000/svg"
   xmlns="http://www.w3.org/2000/svg"
   xmlns:sodipodi="http://sodipodi.sourceforge.net/DTD/sodipodi-0.dtd"
   xmlns:inkscape="http://www.inkscape.org/namespaces/inkscape"
   viewBox="0 0 512 512"
   version="1.1"
   id="svg4"
   sodipodi:docname="vial-solid.svg"
   inkscape:version="1.0.2-2 (e86c870879, 2021-01-15)">
  <metadata
     id="metadata10">
    <rdf:RDF>
      <cc:Work
         rdf:about="">
        <dc:format>image/svg+xml</dc:format>
        <dc:type
           rdf:resource="http://purl.org/dc/dcmitype/StillImage" />
        <dc:title></dc:title>
      </cc:Work>
    </rdf:RDF>
  </metadata>
  <defs
     id="defs8" />
  <sodipodi:namedview
     pagecolor="#ffffff"
     bordercolor="#666666"
     borderopacity="1"
     objecttolerance="10"
     gridtolerance="10"
     guidetolerance="10"
     inkscape:pageopacity="0"
     inkscape:pageshadow="2"
     inkscape:window-width="1920"
     inkscape:window-height="1017"
     id="namedview6"
     showgrid="false"
     inkscape:zoom="0.58695387"
     inkscape:cx="-72.352996"
     inkscape:cy="-70.619459"
     inkscape:window-x="-8"
     inkscape:window-y="-8"
     inkscape:window-maximized="1"
     inkscape:current-layer="svg4" />
  <!--! Font Awesome Pro 6.1.2 by @fontawesome - https://fontawesome.com License - https://fontawesome.com/license (Commercial License) Copyright 2022 Fonticons, Inc. -->
  <g
     id="g892"
     transform="matrix(1.5665584,0,0,1.2769691,499.36195,122.80181)">
    <path
       d="M -82.756083,-85.198186 -220.6431,-86.601113 c -5.3751,-0.08701 -10.27726,2.050134 -13.84656,5.547541 -3.5693,3.4974 -5.79705,8.346528 -5.84751,13.728481 -0.1096,10.772418 8.52729,19.586859 19.2997,19.69647 l 6.01187,0.06202 -2.55034,233.716721 c -0.33977,33.39451 23.86007,63.64718 57.12382,66.46139 19.11606,1.65883 36.71808,-5.35019 49.22805,-17.60816 l 0.1947,-0.19078 c 11.482727,-11.2514 19.079827,-26.45959 18.876737,-44.19491 l 2.66896,-236.904479 6.34795,0.06545 c 5.36909,0.07415 10.26058,-2.073873 13.82989,-5.571287 3.5693,-3.4974 5.79704,-8.346527 5.8475,-13.728478 0.0902,-10.774773 -8.52532,-19.567452 -19.29776,-19.677049 z"
       id="path2"
       style="fill:#ffffff;stroke-width:0.609412"
       sodipodi:nodetypes="ccscccccsscccscsc" />
    <ellipse
       style="fill:#ffffff;fill-opacity:1;stroke:none;stroke-width:3.18542;stroke-linecap:round;stroke-linejoin:round"
       id="path835"
       cx="-154.47694"
       cy="284.91293"
       rx="89.408127"
       ry="9.8620729" />
    <g
       id="g884"
       transform="rotate(0.78200645,4054.0927,-14385.094)"
       style="fill:#000000">
      <rect
         style="fill:#000000;fill-opacity:1;stroke:none;stroke-width:3.66031;stroke-linecap:round;stroke-linejoin:round"
         id="rect857"
         width="15.333403"
         height="69.152527"
         x="-3.4074278"
         y="14.329327" />
      <rect
         style="fill:#000000;fill-opacity:1;stroke:none;stroke-width:2.50431;stroke-linecap:round;stroke-linejoin:round"
         id="rect857-3"
         width="15.333403"
         height="32.370514"
         x="-3.4074237"
         y="94.981911" />
      <circle
         style="fill:#000000;fill-opacity:1;stroke:none;stroke-width:9.0715;stroke-linecap:round;stroke-linejoin:round"
         id="path879"
         cx="4.2592788"
         cy="126.66031"
         r="7.6933222" />
    </g>
  </g>
</svg>
